PathFileType	4	(X/Y/Z)	Walk5.trc
DataRate	CameraRate	NumFrames	NumMarkers	Units	OrigDataRate	OrigDataStartFrame	OrigNumFrames
200.000000	200.000000	4	59	mm	200.000000	324	561
Frame#	Times		LFHD		C7		CLAV		STRN		RBack		LASI		RASI		RACR1		RUA1		RElbow		RFA1		RWRU		RCAR		LACR1		LFA1		LWRR		LCAR		RTH1		RTH2		RTH4		RLFC		LTH1		LTH3		LTH2		LLFC		LTB1		LTB3		LTB2		LTB4		LMT1		LToe		LMMAL		T10		RWRR		LMT5		LTH4		RFHD		LLMAL		RTH3		LPSI		RPSI		RBHD		LElbowM		RMT1		LUA1		RTB1		RMMAL		LBHD		LElbow		RTB2		RTB4		LWRU		RMT5		RElbowM		RTB3		RToe		RLMAL		RCAL		LCAL
			X1	Y1	Z1	X2	Y2	Z2	X3	Y3	Z3	X4	Y4	Z4	X5	Y5	Z5	X6	Y6	Z6	X7	Y7	Z7	X8	Y8	Z8	X9	Y9	Z9	X10	Y10	Z10	X11	Y11	Z11	X12	Y12	Z12	X13	Y13	Z13	X14	Y14	Z14	X15	Y15	Z15	X16	Y16	Z16	X17	Y17	Z17	X18	Y18	Z18	X19	Y19	Z19	X20	Y20	Z20	X21	Y21	Z21	X22	Y22	Z22	X23	Y23	Z23	X24	Y24	Z24	X25	Y25	Z25	X26	Y26	Z26	X27	Y27	Z27	X28	Y28	Z28	X29	Y29	Z29	X30	Y30	Z30	X31	Y31	Z31	X32	Y32	Z32	X33	Y33	Z33	X34	Y34	Z34	X35	Y35	Z35	X36	Y36	Z36	X37	Y37	Z37	X38	Y38	Z38	X39	Y39	Z39	X40	Y40	Z40	X41	Y41	Z41	X42	Y42	Z42	X43	Y43	Z43	X44	Y44	Z44	X45	Y45	Z45	X46	Y46	Z46	X47	Y47	Z47	X48	Y48	Z48	X49	Y49	Z49	X50	Y50	Z50	X51	Y51	Z51	X52	Y52	Z52	X53	Y53	Z53	X54	Y54	Z54	X55	Y55	Z55	X56	Y56	Z56	X57	Y57	Z57	X58	Y58	Z58	X59	Y59	Z59

324	1.62	-146.84	1591.9	-86.022	-313.23	1426.2	-52.353	-186.97	1348.8	-58.698	-108.49	1127	-55.032	-356.7	1322.6	43.333	-168.68	941.47	-176.29	-158.76	959.47	90.809	-237.77	1361.3	116.53	-287.65	1153.9	176.59	-325.85	1052	196.71	-281.75	905.74	212.97	-324.37	801.2	228.71	-284.62	753.76	227.65	-250.08	1364.7	-226.22	-159.32	930.31	-288.35	-102.26	781.87	-278.45	-123.12	823.2	-238.9	-213.37	763.51	148.79	-115	711.97	108.56	-175.88	677.58	131.05	-116.11	497.78	99.05	-281.65	734.5	-199.55	-279.47	552.83	-158.9	-209.18	643.28	-153.74	-291.92	443.74	-143.88	-286.01	342.8	-61.002	-348.15	165.57	-58.149	-334.36	257.78	-132.83	-315.45	251.86	-63.278	-269.63	38.193	-69.268	-222.95	29.26	-99.952	-396.78	73.552	-23.181	-346.4	1141.7	-48.672	-270.1	798.36	178.33	-311.51	22.363	-146.2	-282.37	639.4	-178.41	-138.99	1592.7	-12.964	-414.66	63.767	-104.3	-139.09	592.47	112.04	-379.92	983.22	-84.862	-373.84	987.05	28.919	-309.2	1552.9	25.847	-275.63	1019.4	-239.92	-3.0388	60.669	59.113	-241.44	1157.8	-280.8	-76.393	375.81	34.305	-125.88	106.78	-1.7515	-317.04	1562.3	-100.98	-240.01	1037.7	-298.34	-116.41	290.52	98.251	-91.386	284.32	32.184	-155.79	809.27	-301.88	-59.266	34.237	115.16	-333.88	1031.6	112.94	-105.53	193.8	29.859	25.846	53.352	97.011	-162.07	89.53	70.789	-196.24	56.089	14.113	-466.32	33.382	-49.431
325	1.625	-141.49	1591	-85.562	-307.89	1425.3	-51.967	-181.58	1348	-58.521	-103.09	1126.1	-55.092	-351.24	1321.6	43.556	-163.67	940.39	-176.29	-153.08	958.48	90.861	-232.29	1360.3	116.76	-282.54	1153.1	176.8	-321.02	1051.2	196.97	-277.43	904.87	213.4	-320.46	800.48	229.18	-280.95	752.82	228.1	-244.93	1364.2	-225.96	-151.4	930.79	-288.74	-92.432	783.17	-278.54	-113.6	824.4	-239.02	-207.71	762.9	149.19	-109.77	711.01	108.39	-170.46	676.82	131.61	-111.05	496.33	99.746	-277.12	733.6	-199.26	-275.44	551.91	-158.6	-204.86	642.16	-153.53	-288.48	442.86	-143.55	-283.4	341.88	-60.671	-347.11	165.18	-57.888	-332.34	257.23	-132.56	-313.63	251.19	-62.985	-269.59	38.164	-69.247	-222.83	29.176	-100.08	-396.46	73.59	-23.003	-340.93	1140.8	-48.533	-266.18	797.39	178.81	-311.48	22.387	-146.17	-278.1	638.52	-178.15	-133.6	1591.8	-12.506	-414.38	63.966	-104.19	-133.96	591.58	112.51	-374.57	982.41	-84.515	-368.19	986.33	29.211	-303.8	1552.1	26.362	-268.6	1018.7	-240.13	15.343	62.398	59.485	-235.75	1157.4	-280.98	-68.29	375.35	34.746	-109.07	104.85	-1.0979	-311.71	1561.6	-100.46	-233.28	1037.4	-298.63	-105.32	288.88	98.843	-80.293	283.42	32.74	-146.49	809.75	-301.67	-39.924	34.426	115.81	-328.94	1030.8	113.19	-91.473	192.5	30.467	44.529	55.956	97.268	-144.52	86.501	71.525	-177.78	51.996	14.929	-466.21	33.769	-49.309
326	1.63	-136.15	1590.2	-85.075	-302.52	1424.5	-51.565	-176.16	1347.2	-58.322	-97.685	1125.2	-55.131	-345.76	1320.6	43.794	-158.68	939.28	-176.33	-147.35	957.42	90.932	-226.8	1359.2	117.02	-277.39	1152.2	177.03	-316.15	1050.4	197.25	-273.04	903.96	213.85	-316.44	799.71	229.69	-277.16	751.86	228.58	-239.75	1363.6	-225.68	-143.5	931.23	-289.11	-82.686	784.44	-278.64	-104.12	825.56	-239.14	-202.08	762.19	149.57	-104.62	709.87	108.23	-165.14	675.94	132.19	-106.07	494.8	100.48	-272.58	732.68	-198.97	-271.39	550.98	-158.3	-200.52	641.03	-153.33	-285	441.96	-143.23	-280.76	340.94	-60.347	-346.06	164.79	-57.631	-330.3	256.68	-132.29	-311.78	250.5	-62.699	-269.54	38.136	-69.223	-222.71	29.089	-100.22	-396.13	73.648	-22.83	-335.43	1139.9	-48.371	-262.17	796.4	179.32	-311.44	22.415	-146.12	-273.81	637.61	-177.88	-128.21	1590.9	-12.021	-414.1	64.183	-104.09	-128.99	590.55	113.06	-369.2	981.55	-84.137	-362.51	985.56	29.531	-298.41	1551.2	26.899	-261.56	1018	-240.29	33.495	64.382	59.744	-230.08	1157	-281.13	-60.317	374.88	35.201	-92.434	103.18	-0.40712	-306.38	1560.8	-99.91	-226.57	1037	-298.89	-94.322	287.34	99.466	-69.341	282.61	33.318	-137.24	810.19	-301.44	-20.721	34.901	116.4	-323.97	1029.9	113.47	-77.567	191.38	31.102	62.983	58.862	97.376	-127.05	83.756	72.312	-159.42	48.221	15.825	-466.09	34.188	-49.184
327	1.635	-130.81	1589.4	-84.561	-297.14	1423.6	-51.144	-170.73	1346.3	-58.098	-92.267	1124.2	-55.148	-340.27	1319.6	44.051	-153.7	938.16	-176.39	-141.57	956.28	91.019	-221.28	1358.2	117.31	-272.2	1151.2	177.29	-311.23	1049.6	197.56	-268.58	903.02	214.33	-312.32	798.9	230.22	-273.28	750.86	229.08	-234.54	1362.9	-225.39	-135.64	931.63	-289.44	-73.019	785.67	-278.76	-94.677	826.69	-239.27	-196.49	761.4	149.93	-99.549	708.56	108.08	-159.91	674.94	132.79	-101.17	493.18	101.26	-268.03	731.74	-198.68	-267.32	550.02	-158.02	-196.16	639.89	-153.15	-281.5	441.04	-142.91	-278.1	339.98	-60.033	-344.99	164.4	-57.378	-328.26	256.13	-132.03	-309.92	249.81	-62.424	-269.49	38.109	-69.197	-222.6	28.998	-100.36	-395.8	73.729	-22.661	-329.92	1139	-48.182	-258.06	795.38	179.85	-311.41	22.447	-146.08	-269.5	636.68	-177.61	-122.83	1590	-11.511	-413.81	64.421	-103.99	-124.19	589.37	113.68	-363.82	980.66	-83.725	-356.81	984.74	29.883	-293.01	1550.2	27.458	-254.53	1017.2	-240.4	51.369	66.606	59.902	-224.42	1156.5	-281.24	-52.47	374.42	35.667	-76.014	101.76	0.31961	-301.05	1560	-99.337	-219.86	1036.5	-299.1	-83.434	285.91	100.12	-58.54	281.9	33.916	-128.06	810.6	-301.19	-1.7165	35.652	116.91	-319	1029	113.78	-63.833	190.43	31.763	81.156	62.05	97.35	-109.71	81.304	73.146	-141.2	44.769	16.797	-465.97	34.641	-49.055
